<svg xmlns="http://www.w3.org/2000/svg" width="512" height="512" viewBox="0 0 512 512">
  <defs>
    <linearGradient id="bg" x1="0" y1="0" x2="1" y2="1">
      <stop offset="0%" stop-color="#08090f"/>
      <stop offset="100%" stop-color="#34111f"/>
    </linearGradient>
  </defs>
  <rect width="512" height="512" rx="128" fill="url(#bg)"/>
  <path d="M138 142h96c82 0 144 45 144 122 0 78-62 124-144 124h-24v58h-72zm72 60v126h18c47 0 76-21 76-64 0-41-29-62-76-62z" fill="#f5f7fb"/>
  <path d="M236 214l110 61-110 61z" fill="#ff5879"/>
  <path d="M314 156c20 10 34 28 42 52-18-7-33-6-48 3 2-21 4-38 6-55z" fill="#ff5879"/>
  <path d="M368 174c16 11 27 27 32 47-14-6-28-7-42-4 2-16 5-29 10-43z" fill="#ff8aa3"/>
</svg>
