<svg xmlns="http://www.w3.org/2000/svg" width="512" height="512" viewBox="0 0 512 512">
  <defs>
    <linearGradient id="bg" x1="0" y1="0" x2="1" y2="1">
      <stop offset="0%" stop-color="#0a0b12"/>
      <stop offset="100%" stop-color="#3a101d"/>
    </linearGradient>
    <linearGradient id="mark" x1="0" y1="0" x2="1" y2="1">
      <stop offset="0%" stop-color="#ffffff"/>
      <stop offset="100%" stop-color="#d7d9e3"/>
    </linearGradient>
  </defs>
  <rect width="512" height="512" rx="128" fill="url(#bg)"/>
  <path d="M152 152h94c61 0 114 39 114 104 0 67-53 104-114 104h-32v74h-62zm62 54v100h28c34 0 56-17 56-50 0-33-22-50-56-50z" fill="url(#mark)"/>
  <path d="M318 150c18 10 31 27 38 50-18-8-34-7-50 2 3-21 7-36 12-52z" fill="#ff5e7a"/>
  <path d="M366 168c14 9 24 22 30 40-12-6-25-7-38-4 1-14 4-25 8-36z" fill="#ff8aa0"/>
</svg>
