<svg xmlns="http://www.w3.org/2000/svg" width="512" height="512" viewBox="0 0 512 512">
  <rect width="512" height="512" rx="128" fill="#0a0b12"/>
  <circle cx="256" cy="256" r="152" fill="#ff101f"/>
  <path d="M181 122c-9 37 1 80 29 108-40-8-63-56-51-99 4-13 11-25 22-34z" fill="#ff0f1f" stroke="#2a060c" stroke-width="14" stroke-linejoin="round"/>
  <path d="M331 122c9 37-1 80-29 108 40-8 63-56 51-99-4-13-11-25-22-34z" fill="#ff0f1f" stroke="#2a060c" stroke-width="14" stroke-linejoin="round"/>
  <path d="M240 109c-8 23-6 47 9 66-26-9-39-39-30-66 4-11 11-20 21-27z" fill="#ff0f1f" stroke="#2a060c" stroke-width="14" stroke-linejoin="round"/>
  <ellipse cx="210" cy="259" rx="24" ry="40" fill="#22171b"/>
  <ellipse cx="302" cy="259" rx="24" ry="40" fill="#22171b"/>
  <circle cx="199" cy="242" r="10" fill="#ffffff"/>
  <circle cx="291" cy="242" r="10" fill="#ffffff"/>
  <path d="M154 228c30-21 62-22 94 2" fill="none" stroke="#22171b" stroke-width="16" stroke-linecap="round"/>
  <path d="M264 230c29-23 62-24 95-3" fill="none" stroke="#22171b" stroke-width="16" stroke-linecap="round"/>
  <path d="M220 334c41 14 84 8 113-24" fill="none" stroke="#22171b" stroke-width="14" stroke-linecap="round"/>
  <path d="M327 308c15 3 26 15 28 31" fill="none" stroke="#22171b" stroke-width="14" stroke-linecap="round"/>
  <path d="M135 214c20 18 40 28 65 35-16 5-31 11-46 22-17-13-28-34-30-57z" fill="#d40013" opacity=".85"/>
  <path d="M377 214c-20 18-40 28-65 35 16 5 31 11 46 22 17-13 28-34 30-57z" fill="#d40013" opacity=".85"/>
</svg>
